<svg xmlns="http://www.w3.org/2000/svg" xmlns:xlink="http://www.w3.org/1999/xlink" width="375" viewBox="0 0 375 375" height="375" version="1.0"><defs><clipPath id="a"><path d="M 31 72 L 168 72 L 168 334 L 31 334 Z M 31 72"/></clipPath><clipPath id="b"><path d="M 125.007812 292.042969 C 111.105469 267.417969 107.804688 238.902344 115.710938 211.757812 C 123.84375 183.835938 142.691406 161.34375 167.523438 148.484375 C 150.367188 143.714844 136.808594 130.234375 132.839844 112.519531 C 132.371094 110.441406 131.773438 108.367188 131.03125 106.300781 C 122.210938 81.675781 95.753906 67.550781 70.363281 73.867188 C 41.902344 80.949219 25.289062 110.171875 33.410156 138.054688 C 36.832031 149.800781 44.085938 159.390625 53.414062 165.863281 C 69.3125 176.890625 76.199219 196.703125 70.808594 215.285156 C 66.117188 231.441406 65.792969 249.074219 70.804688 266.425781 C 83.070312 308.914062 123.964844 336.074219 166.683594 332.734375 C 149.324219 323.527344 134.914062 309.589844 125.007812 292.042969 Z M 125.007812 292.042969"/></clipPath><clipPath id="d"><path d="M 123 72 L 344 72 L 344 334 L 123 334 Z M 123 72"/></clipPath><clipPath id="e"><path d="M 242.253906 112.519531 C 242.71875 110.441406 243.320312 108.367188 244.058594 106.300781 C 252.882812 81.675781 279.335938 67.546875 304.726562 73.867188 C 333.1875 80.949219 349.800781 110.171875 341.679688 138.054688 C 338.257812 149.800781 331.003906 159.390625 321.679688 165.863281 C 305.777344 176.890625 298.890625 196.703125 304.285156 215.285156 C 308.972656 231.441406 309.296875 249.074219 304.285156 266.425781 C 290.457031 314.320312 240.253906 342.777344 192.0625 329.972656 C 141.847656 316.628906 112.71875 264.683594 127.164062 215.089844 C 137.324219 180.214844 166.289062 155.921875 199.8125 150.039062 C 200.09375 149.988281 200.382812 149.945312 200.6875 149.902344 C 221.027344 147.167969 237.765625 132.546875 242.253906 112.519531 Z M 242.253906 112.519531"/></clipPath><clipPath id="g"><path d="M 147 57 L 228 57 L 228 138 L 147 138 Z M 147 57"/></clipPath><clipPath id="h"><path d="M 227.664062 97.644531 C 227.664062 98.960938 227.601562 100.269531 227.472656 101.578125 C 227.34375 102.886719 227.152344 104.183594 226.894531 105.472656 C 226.636719 106.761719 226.320312 108.03125 225.9375 109.289062 C 225.558594 110.546875 225.113281 111.78125 224.613281 112.996094 C 224.109375 114.210938 223.546875 115.394531 222.929688 116.554688 C 222.308594 117.710938 221.632812 118.839844 220.902344 119.929688 C 220.175781 121.023438 219.390625 122.078125 218.558594 123.09375 C 217.726562 124.109375 216.84375 125.078125 215.914062 126.007812 C 214.984375 126.9375 214.011719 127.820312 212.996094 128.652344 C 211.980469 129.484375 210.925781 130.265625 209.835938 130.996094 C 208.742188 131.726562 207.617188 132.402344 206.457031 133.019531 C 205.300781 133.640625 204.113281 134.199219 202.898438 134.703125 C 201.683594 135.207031 200.449219 135.648438 199.191406 136.03125 C 197.933594 136.410156 196.660156 136.730469 195.371094 136.984375 C 194.082031 137.242188 192.785156 137.433594 191.476562 137.5625 C 190.171875 137.691406 188.859375 137.757812 187.546875 137.757812 C 186.230469 137.757812 184.921875 137.691406 183.613281 137.5625 C 182.304688 137.433594 181.007812 137.242188 179.71875 136.984375 C 178.429688 136.730469 177.15625 136.410156 175.898438 136.03125 C 174.640625 135.648438 173.40625 135.207031 172.191406 134.703125 C 170.976562 134.199219 169.792969 133.640625 168.632812 133.019531 C 167.472656 132.402344 166.347656 131.726562 165.257812 130.996094 C 164.164062 130.265625 163.109375 129.484375 162.09375 128.652344 C 161.078125 127.820312 160.105469 126.9375 159.175781 126.007812 C 158.246094 125.078125 157.367188 124.109375 156.53125 123.09375 C 155.699219 122.078125 154.917969 121.023438 154.1875 119.929688 C 153.457031 118.839844 152.78125 117.710938 152.164062 116.554688 C 151.542969 115.394531 150.980469 114.210938 150.480469 112.996094 C 149.976562 111.78125 149.535156 110.546875 149.152344 109.289062 C 148.769531 108.03125 148.453125 106.761719 148.195312 105.472656 C 147.941406 104.183594 147.746094 102.886719 147.617188 101.578125 C 147.488281 100.269531 147.425781 98.960938 147.425781 97.644531 C 147.425781 96.332031 147.488281 95.023438 147.617188 93.714844 C 147.746094 92.40625 147.941406 91.109375 148.195312 89.820312 C 148.453125 88.53125 148.769531 87.261719 149.152344 86.003906 C 149.535156 84.746094 149.976562 83.511719 150.480469 82.296875 C 150.980469 81.082031 151.542969 79.898438 152.164062 78.738281 C 152.78125 77.578125 153.457031 76.453125 154.1875 75.363281 C 154.917969 74.269531 155.699219 73.214844 156.53125 72.199219 C 157.367188 71.183594 158.246094 70.214844 159.175781 69.285156 C 160.105469 68.355469 161.078125 67.472656 162.09375 66.640625 C 163.109375 65.808594 164.164062 65.027344 165.257812 64.296875 C 166.347656 63.566406 167.472656 62.890625 168.632812 62.273438 C 169.792969 61.652344 170.976562 61.09375 172.191406 60.589844 C 173.40625 60.085938 174.640625 59.644531 175.898438 59.261719 C 177.15625 58.882812 178.429688 58.5625 179.71875 58.308594 C 181.007812 58.050781 182.304688 57.859375 183.613281 57.730469 C 184.921875 57.601562 186.230469 57.535156 187.546875 57.535156 C 188.859375 57.535156 190.171875 57.601562 191.476562 57.730469 C 192.785156 57.859375 194.082031 58.050781 195.371094 58.308594 C 196.660156 58.5625 197.933594 58.882812 199.191406 59.261719 C 200.449219 59.644531 201.683594 60.085938 202.898438 60.589844 C 204.113281 61.09375 205.300781 61.652344 206.457031 62.273438 C 207.617188 62.890625 208.742188 63.566406 209.835938 64.296875 C 210.925781 65.027344 211.980469 65.808594 212.996094 66.640625 C 214.011719 67.472656 214.984375 68.355469 215.914062 69.285156 C 216.84375 70.214844 217.726562 71.183594 218.558594 72.199219 C 219.390625 73.214844 220.175781 74.269531 220.902344 75.363281 C 221.632812 76.453125 222.308594 77.578125 222.929688 78.738281 C 223.546875 79.898438 224.109375 81.082031 224.613281 82.296875 C 225.113281 83.511719 225.558594 84.746094 225.9375 86.003906 C 226.320312 87.261719 226.636719 88.53125 226.894531 89.820312 C 227.152344 91.109375 227.34375 92.40625 227.472656 93.714844 C 227.601562 95.023438 227.664062 96.332031 227.664062 97.644531 Z M 227.664062 97.644531"/></clipPath><clipPath id="j"><path d="M 107 32.253906 L 148 32.253906 L 148 73 L 107 73 Z M 107 32.253906"/></clipPath><clipPath id="k"><path d="M 147.425781 52.308594 C 147.425781 52.964844 147.394531 53.621094 147.328125 54.273438 C 147.265625 54.929688 147.167969 55.578125 147.039062 56.222656 C 146.910156 56.867188 146.753906 57.5 146.5625 58.128906 C 146.371094 58.757812 146.148438 59.375 145.898438 59.984375 C 145.648438 60.589844 145.367188 61.183594 145.058594 61.761719 C 144.746094 62.34375 144.410156 62.90625 144.042969 63.449219 C 143.679688 63.996094 143.289062 64.523438 142.871094 65.03125 C 142.457031 65.539062 142.015625 66.023438 141.550781 66.488281 C 141.085938 66.953125 140.597656 67.394531 140.089844 67.8125 C 139.582031 68.226562 139.054688 68.617188 138.511719 68.984375 C 137.964844 69.347656 137.402344 69.6875 136.820312 69.996094 C 136.242188 70.304688 135.648438 70.585938 135.042969 70.835938 C 134.433594 71.089844 133.816406 71.308594 133.1875 71.5 C 132.558594 71.691406 131.921875 71.851562 131.277344 71.976562 C 130.632812 72.105469 129.984375 72.203125 129.332031 72.265625 C 128.679688 72.332031 128.023438 72.363281 127.367188 72.363281 C 126.707031 72.363281 126.054688 72.332031 125.398438 72.265625 C 124.746094 72.203125 124.097656 72.105469 123.453125 71.976562 C 122.808594 71.851562 122.171875 71.691406 121.542969 71.5 C 120.914062 71.308594 120.296875 71.089844 119.6875 70.835938 C 119.082031 70.585938 118.488281 70.304688 117.910156 69.996094 C 117.328125 69.6875 116.765625 69.347656 116.222656 68.984375 C 115.675781 68.617188 115.148438 68.226562 114.640625 67.8125 C 114.132812 67.394531 113.644531 66.953125 113.179688 66.488281 C 112.714844 66.023438 112.277344 65.539062 111.859375 65.03125 C 111.441406 64.523438 111.050781 63.996094 110.6875 63.449219 C 110.320312 62.90625 109.984375 62.34375 109.675781 61.761719 C 109.363281 61.183594 109.085938 60.589844 108.832031 59.984375 C 108.582031 59.375 108.359375 58.757812 108.167969 58.128906 C 107.980469 57.5 107.820312 56.867188 107.691406 56.222656 C 107.5625 55.578125 107.464844 54.929688 107.402344 54.273438 C 107.339844 53.621094 107.304688 52.964844 107.304688 52.308594 C 107.304688 51.652344 107.339844 50.996094 107.402344 50.34375 C 107.464844 49.6875 107.5625 49.039062 107.691406 48.394531 C 107.820312 47.753906 107.980469 47.117188 108.167969 46.488281 C 108.359375 45.859375 108.582031 45.242188 108.832031 44.632812 C 109.085938 44.027344 109.363281 43.433594 109.675781 42.855469 C 109.984375 42.277344 110.320312 41.714844 110.6875 41.167969 C 111.050781 40.621094 111.441406 40.09375 111.859375 39.585938 C 112.277344 39.078125 112.714844 38.59375 113.179688 38.128906 C 113.644531 37.664062 114.132812 37.222656 114.640625 36.804688 C 115.148438 36.390625 115.675781 36 116.222656 35.632812 C 116.765625 35.269531 117.328125 34.933594 117.910156 34.621094 C 118.488281 34.3125 119.082031 34.03125 119.6875 33.78125 C 120.296875 33.527344 120.914062 33.308594 121.542969 33.117188 C 122.171875 32.925781 122.808594 32.765625 123.453125 32.640625 C 124.097656 32.511719 124.746094 32.414062 125.398438 32.351562 C 126.054688 32.285156 126.707031 32.253906 127.367188 32.253906 C 128.023438 32.253906 128.679688 32.285156 129.332031 32.351562 C 129.984375 32.414062 130.632812 32.511719 131.277344 32.640625 C 131.921875 32.765625 132.558594 32.925781 133.1875 33.117188 C 133.816406 33.308594 134.433594 33.527344 135.042969 33.78125 C 135.648438 34.03125 136.242188 34.3125 136.820312 34.621094 C 137.402344 34.933594 137.964844 35.269531 138.511719 35.632812 C 139.054688 36 139.582031 36.390625 140.089844 36.804688 C 140.597656 37.222656 141.085938 37.664062 141.550781 38.128906 C 142.015625 38.59375 142.457031 39.078125 142.871094 39.585938 C 143.289062 40.09375 143.679688 40.621094 144.042969 41.167969 C 144.410156 41.714844 144.746094 42.277344 145.058594 42.855469 C 145.367188 43.433594 145.648438 44.027344 145.898438 44.632812 C 146.148438 45.242188 146.371094 45.859375 146.5625 46.488281 C 146.753906 47.117188 146.910156 47.753906 147.039062 48.394531 C 147.167969 49.039062 147.265625 49.6875 147.328125 50.34375 C 147.394531 50.996094 147.425781 51.652344 147.425781 52.308594 Z M 147.425781 52.308594"/></clipPath><clipPath id="m"><path d="M 227 32.253906 L 268 32.253906 L 268 73 L 227 73 Z M 227 32.253906"/></clipPath><clipPath id="n"><path d="M 267.785156 52.308594 C 267.785156 52.964844 267.753906 53.621094 267.6875 54.273438 C 267.625 54.929688 267.527344 55.578125 267.398438 56.222656 C 267.273438 56.867188 267.113281 57.5 266.921875 58.128906 C 266.730469 58.757812 266.511719 59.375 266.257812 59.984375 C 266.007812 60.589844 265.726562 61.183594 265.417969 61.761719 C 265.105469 62.34375 264.769531 62.90625 264.40625 63.449219 C 264.039062 63.996094 263.648438 64.523438 263.230469 65.03125 C 262.816406 65.539062 262.375 66.023438 261.910156 66.488281 C 261.445312 66.953125 260.960938 67.394531 260.453125 67.8125 C 259.945312 68.226562 259.417969 68.617188 258.871094 68.984375 C 258.324219 69.347656 257.761719 69.6875 257.179688 69.996094 C 256.601562 70.304688 256.007812 70.585938 255.402344 70.835938 C 254.796875 71.089844 254.175781 71.308594 253.546875 71.5 C 252.917969 71.691406 252.285156 71.851562 251.640625 71.976562 C 250.996094 72.105469 250.34375 72.203125 249.691406 72.265625 C 249.039062 72.332031 248.382812 72.363281 247.726562 72.363281 C 247.070312 72.363281 246.414062 72.332031 245.757812 72.265625 C 245.105469 72.203125 244.457031 72.105469 243.8125 71.976562 C 243.167969 71.851562 242.53125 71.691406 241.902344 71.5 C 241.273438 71.308594 240.65625 71.089844 240.050781 70.835938 C 239.441406 70.585938 238.847656 70.304688 238.269531 69.996094 C 237.691406 69.6875 237.128906 69.347656 236.582031 68.984375 C 236.035156 68.617188 235.507812 68.226562 235 67.8125 C 234.492188 67.394531 234.003906 66.953125 233.542969 66.488281 C 233.078125 66.023438 232.636719 65.539062 232.21875 65.03125 C 231.800781 64.523438 231.410156 63.996094 231.046875 63.449219 C 230.679688 62.90625 230.34375 62.34375 230.035156 61.761719 C 229.726562 61.183594 229.445312 60.589844 229.191406 59.984375 C 228.941406 59.375 228.71875 58.757812 228.53125 58.128906 C 228.339844 57.5 228.179688 56.867188 228.050781 56.222656 C 227.921875 55.578125 227.828125 54.929688 227.761719 54.273438 C 227.699219 53.621094 227.664062 52.964844 227.664062 52.308594 C 227.664062 51.652344 227.699219 50.996094 227.761719 50.34375 C 227.828125 49.6875 227.921875 49.039062 228.050781 48.394531 C 228.179688 47.753906 228.339844 47.117188 228.53125 46.488281 C 228.71875 45.859375 228.941406 45.242188 229.191406 44.632812 C 229.445312 44.027344 229.726562 43.433594 230.035156 42.855469 C 230.34375 42.277344 230.679688 41.714844 231.046875 41.167969 C 231.410156 40.621094 231.800781 40.09375 232.21875 39.585938 C 232.636719 39.078125 233.078125 38.59375 233.542969 38.128906 C 234.003906 37.664062 234.492188 37.222656 235 36.804688 C 235.507812 36.390625 236.035156 36 236.582031 35.632812 C 237.128906 35.269531 237.691406 34.933594 238.269531 34.621094 C 238.847656 34.3125 239.441406 34.03125 240.050781 33.78125 C 240.65625 33.527344 241.273438 33.308594 241.902344 33.117188 C 242.53125 32.925781 243.167969 32.765625 243.8125 32.640625 C 244.457031 32.511719 245.105469 32.414062 245.757812 32.351562 C 246.414062 32.285156 247.070312 32.253906 247.726562 32.253906 C 248.382812 32.253906 249.039062 32.285156 249.691406 32.351562 C 250.34375 32.414062 250.996094 32.511719 251.640625 32.640625 C 252.285156 32.765625 252.917969 32.925781 253.546875 33.117188 C 254.175781 33.308594 254.796875 33.527344 255.402344 33.78125 C 256.007812 34.03125 256.601562 34.3125 257.179688 34.621094 C 257.761719 34.933594 258.324219 35.269531 258.871094 35.632812 C 259.417969 36 259.945312 36.390625 260.453125 36.804688 C 260.960938 37.222656 261.445312 37.664062 261.910156 38.128906 C 262.375 38.59375 262.816406 39.078125 263.230469 39.585938 C 263.648438 40.09375 264.039062 40.621094 264.40625 41.167969 C 264.769531 41.714844 265.105469 42.277344 265.417969 42.855469 C 265.726562 43.433594 266.007812 44.027344 266.257812 44.632812 C 266.507812 45.242188 266.730469 45.859375 266.921875 46.488281 C 267.113281 47.117188 267.273438 47.753906 267.398438 48.394531 C 267.527344 49.039062 267.625 49.6875 267.6875 50.34375 C 267.753906 50.996094 267.785156 51.652344 267.785156 52.308594 Z M 267.785156 52.308594"/></clipPath><linearGradient x1="111.918" gradientTransform="matrix(.62478 0 0 .62462 31.35 32.254)" xmlns:xlink="http://www.w3.org/1999/xlink" y1="55.023" x2="105.862" gradientUnits="userSpaceOnUse" y2="488.023" xlink:type="simple" xlink:actuate="onLoad" id="c" xlink:show="other"><stop stop-color="#27E1D8" offset="0"/><stop stop-color="#28E0D7" offset=".004"/><stop stop-color="#29E0D7" offset=".008"/><stop stop-color="#2ADFD7" offset=".012"/><stop stop-color="#2BDFD7" offset=".016"/><stop stop-color="#2BDED7" offset=".02"/><stop stop-color="#2CDED7" offset=".023"/><stop stop-color="#2DDDD7" offset=".027"/><stop stop-color="#2EDDD7" offset=".031"/><stop stop-color="#2FDCD7" offset=".035"/><stop stop-color="#30DCD7" offset=".039"/><stop stop-color="#31DBD7" offset=".043"/><stop stop-color="#32DBD7" offset=".047"/><stop stop-color="#33DAD7" offset=".051"/><stop stop-color="#34DAD6" offset=".055"/><stop stop-color="#34D9D6" offset=".059"/><stop stop-color="#35D9D6" offset=".063"/><stop stop-color="#36D8D6" offset=".066"/><stop stop-color="#37D8D6" offset=".07"/><stop stop-color="#38D7D6" offset=".074"/><stop stop-color="#39D7D6" offset=".078"/><stop stop-color="#3AD6D6" offset=".082"/><stop stop-color="#3BD6D6" offset=".086"/><stop stop-color="#3CD5D6" offset=".09"/><stop stop-color="#3DD5D6" offset=".094"/><stop stop-color="#3DD4D6" offset=".098"/><stop stop-color="#3ED4D5" offset=".102"/><stop stop-color="#3FD3D5" offset=".105"/><stop stop-color="#40D3D5" offset=".109"/><stop stop-color="#41D2D5" offset=".113"/><stop stop-color="#42D2D5" offset=".117"/><stop stop-color="#43D1D5" offset=".121"/><stop stop-color="#44D1D5" offset=".125"/><stop stop-color="#45D0D5" offset=".129"/><stop stop-color="#46D0D5" offset=".133"/><stop stop-color="#46CFD5" offset=".137"/><stop stop-color="#47CFD5" offset=".141"/><stop stop-color="#48CED5" offset=".145"/><stop stop-color="#49CED4" offset=".148"/><stop stop-color="#4ACDD4" offset=".152"/><stop stop-color="#4BCDD4" offset=".156"/><stop stop-color="#4CCCD4" offset=".16"/><stop stop-color="#4DCBD4" offset=".164"/><stop stop-color="#4ECBD4" offset=".168"/><stop stop-color="#4ECAD4" offset=".172"/><stop stop-color="#4FCAD4" offset=".176"/><stop stop-color="#50C9D4" offset=".18"/><stop stop-color="#51C9D4" offset=".184"/><stop stop-color="#52C8D4" offset=".188"/><stop stop-color="#53C8D4" offset=".191"/><stop stop-color="#54C7D4" offset=".195"/><stop stop-color="#55C7D3" offset=".199"/><stop stop-color="#56C6D3" offset=".203"/><stop stop-color="#57C6D3" offset=".207"/><stop stop-color="#57C5D3" offset=".211"/><stop stop-color="#58C5D3" offset=".215"/><stop stop-color="#59C4D3" offset=".219"/><stop stop-color="#5AC4D3" offset=".223"/><stop stop-color="#5BC3D3" offset=".227"/><stop stop-color="#5CC3D3" offset=".23"/><stop stop-color="#5DC2D3" offset=".234"/><stop stop-color="#5EC2D3" offset=".238"/><stop stop-color="#5FC1D3" offset=".242"/><stop stop-color="#60C1D2" offset=".246"/><stop stop-color="#60C0D2" offset=".25"/><stop stop-color="#61C0D2" offset=".254"/><stop stop-color="#62BFD2" offset=".258"/><stop stop-color="#63BFD2" offset=".262"/><stop stop-color="#64BED2" offset=".266"/><stop stop-color="#65BED2" offset=".27"/><stop stop-color="#66BDD2" offset=".273"/><stop stop-color="#67BDD2" offset=".277"/><stop stop-color="#68BCD2" offset=".281"/><stop stop-color="#69BCD2" offset=".285"/><stop stop-color="#69BBD2" offset=".289"/><stop stop-color="#6ABBD1" offset=".293"/><stop stop-color="#6BBAD1" offset=".297"/><stop stop-color="#6CBAD1" offset=".301"/><stop stop-color="#6DB9D1" offset=".305"/><stop stop-color="#6EB9D1" offset=".309"/><stop stop-color="#6FB8D1" offset=".313"/><stop stop-color="#70B8D1" offset=".316"/><stop stop-color="#71B7D1" offset=".32"/><stop stop-color="#72B7D1" offset=".324"/><stop stop-color="#72B6D1" offset=".328"/><stop stop-color="#73B5D1" offset=".332"/><stop stop-color="#74B5D1" offset=".336"/><stop stop-color="#75B4D1" offset=".34"/><stop stop-color="#76B4D0" offset=".344"/><stop stop-color="#77B3D0" offset=".348"/><stop stop-color="#78B3D0" offset=".352"/><stop stop-color="#79B2D0" offset=".355"/><stop stop-color="#7AB2D0" offset=".359"/><stop stop-color="#7BB1D0" offset=".363"/><stop stop-color="#7BB1D0" offset=".367"/><stop stop-color="#7CB0D0" offset=".371"/><stop stop-color="#7DB0D0" offset=".375"/><stop stop-color="#7EAFD0" offset=".379"/><stop stop-color="#7FAFD0" offset=".383"/><stop stop-color="#80AED0" offset=".387"/><stop stop-color="#81AECF" offset=".391"/><stop stop-color="#82ADCF" offset=".395"/><stop stop-color="#83ADCF" offset=".398"/><stop stop-color="#84ACCF" offset=".402"/><stop stop-color="#84ACCF" offset=".406"/><stop stop-color="#85ABCF" offset=".41"/><stop stop-color="#86ABCF" offset=".414"/><stop stop-color="#87AACF" offset=".418"/><stop stop-color="#88AACF" offset=".422"/><stop stop-color="#89A9CF" offset=".426"/><stop stop-color="#8AA9CF" offset=".43"/><stop stop-color="#8BA8CF" offset=".434"/><stop stop-color="#8CA8CE" offset=".438"/><stop stop-color="#8CA7CE" offset=".441"/><stop stop-color="#8DA7CE" offset=".445"/><stop stop-color="#8EA6CE" offset=".449"/><stop stop-color="#8FA6CE" offset=".453"/><stop stop-color="#90A5CE" offset=".457"/><stop stop-color="#91A5CE" offset=".461"/><stop stop-color="#92A4CE" offset=".465"/><stop stop-color="#93A4CE" offset=".469"/><stop stop-color="#94A3CE" offset=".473"/><stop stop-color="#95A3CE" offset=".477"/><stop stop-color="#95A2CE" offset=".48"/><stop stop-color="#96A2CE" offset=".484"/><stop stop-color="#97A1CD" offset=".488"/><stop stop-color="#98A1CD" offset=".492"/><stop stop-color="#99A0CD" offset=".496"/><stop stop-color="#9AA0CD" offset=".5"/><stop stop-color="#9B9FCD" offset=".504"/><stop stop-color="#9C9ECD" offset=".508"/><stop stop-color="#9D9ECD" offset=".512"/><stop stop-color="#9E9DCD" offset=".516"/><stop stop-color="#9E9DCD" offset=".52"/><stop stop-color="#9F9CCD" offset=".523"/><stop stop-color="#A09CCD" offset=".527"/><stop stop-color="#A19BCD" offset=".531"/><stop stop-color="#A29BCC" offset=".535"/><stop stop-color="#A39ACC" offset=".539"/><stop stop-color="#A49ACC" offset=".543"/><stop stop-color="#A599CC" offset=".547"/><stop stop-color="#A699CC" offset=".551"/><stop stop-color="#A798CC" offset=".555"/><stop stop-color="#A798CC" offset=".559"/><stop stop-color="#A897CC" offset=".563"/><stop stop-color="#A997CC" offset=".566"/><stop stop-color="#AA96CC" offset=".57"/><stop stop-color="#AB96CC" offset=".574"/><stop stop-color="#AC95CC" offset=".578"/><stop stop-color="#AD95CB" offset=".582"/><stop stop-color="#AE94CB" offset=".586"/><stop stop-color="#AF94CB" offset=".59"/><stop stop-color="#B093CB" offset=".594"/><stop stop-color="#B093CB" offset=".598"/><stop stop-color="#B192CB" offset=".602"/><stop stop-color="#B292CB" offset=".605"/><stop stop-color="#B391CB" offset=".609"/><stop stop-color="#B491CB" offset=".613"/><stop stop-color="#B590CB" offset=".617"/><stop stop-color="#B690CB" offset=".621"/><stop stop-color="#B78FCB" offset=".625"/><stop stop-color="#B88FCB" offset=".629"/><stop stop-color="#B98ECA" offset=".633"/><stop stop-color="#B98ECA" offset=".637"/><stop stop-color="#BA8DCA" offset=".641"/><stop stop-color="#BB8DCA" offset=".645"/><stop stop-color="#BC8CCA" offset=".648"/><stop stop-color="#BD8CCA" offset=".652"/><stop stop-color="#BE8BCA" offset=".656"/><stop stop-color="#BF8BCA" offset=".66"/><stop stop-color="#C08ACA" offset=".664"/><stop stop-color="#C18ACA" offset=".668"/><stop stop-color="#C189CA" offset=".672"/><stop stop-color="#C288CA" offset=".676"/><stop stop-color="#C388C9" offset=".68"/><stop stop-color="#C487C9" offset=".684"/><stop stop-color="#C587C9" offset=".688"/><stop stop-color="#C686C9" offset=".691"/><stop stop-color="#C786C9" offset=".695"/><stop stop-color="#C885C9" offset=".699"/><stop stop-color="#C985C9" offset=".703"/><stop stop-color="#CA84C9" offset=".707"/><stop stop-color="#CA84C9" offset=".711"/><stop stop-color="#CB83C9" offset=".715"/><stop stop-color="#CC83C9" offset=".719"/><stop stop-color="#CD82C9" offset=".723"/><stop stop-color="#CE82C9" offset=".727"/><stop stop-color="#CF81C8" offset=".73"/><stop stop-color="#D081C8" offset=".734"/><stop stop-color="#D180C8" offset=".738"/><stop stop-color="#D280C8" offset=".742"/><stop stop-color="#D37FC8" offset=".746"/><stop stop-color="#D37FC8" offset=".75"/><stop stop-color="#D47EC8" offset=".754"/><stop stop-color="#D57EC8" offset=".758"/><stop stop-color="#D67DC8" offset=".762"/><stop stop-color="#D77DC8" offset=".766"/><stop stop-color="#D87CC8" offset=".77"/><stop stop-color="#D97CC8" offset=".773"/><stop stop-color="#DA7BC7" offset=".777"/><stop stop-color="#DB7BC7" offset=".781"/><stop stop-color="#DC7AC7" offset=".785"/><stop stop-color="#DC7AC7" offset=".789"/><stop stop-color="#DD79C7" offset=".793"/><stop stop-color="#DE79C7" offset=".797"/><stop stop-color="#DF78C7" offset=".801"/><stop stop-color="#E078C7" offset=".805"/><stop stop-color="#E177C7" offset=".809"/><stop stop-color="#E277C7" offset=".813"/><stop stop-color="#E376C7" offset=".816"/><stop stop-color="#E476C7" offset=".82"/><stop stop-color="#E575C6" offset=".824"/><stop stop-color="#E575C6" offset=".828"/><stop stop-color="#E674C6" offset=".832"/><stop stop-color="#E774C6" offset=".836"/><stop stop-color="#E873C6" offset=".84"/><stop stop-color="#E973C6" offset=".844"/><stop stop-color="#EA72C6" offset=".848"/><stop stop-color="#EB71C6" offset=".852"/><stop stop-color="#EC71C6" offset=".855"/><stop stop-color="#ED70C6" offset=".859"/><stop stop-color="#EE70C6" offset=".863"/><stop stop-color="#EE6FC6" offset=".867"/><stop stop-color="#EF6FC6" offset=".871"/><stop stop-color="#F06EC5" offset=".875"/><stop stop-color="#F16EC5" offset=".879"/><stop stop-color="#F26DC5" offset=".883"/><stop stop-color="#F36DC5" offset=".887"/><stop stop-color="#F46CC5" offset=".891"/><stop stop-color="#F56CC5" offset=".895"/><stop stop-color="#F66BC5" offset=".898"/><stop stop-color="#F76BC5" offset=".902"/><stop stop-color="#F76AC5" offset=".906"/><stop stop-color="#F86AC5" offset=".91"/><stop stop-color="#F969C5" offset=".914"/><stop stop-color="#FA69C5" offset=".918"/><stop stop-color="#FB68C4" offset=".922"/><stop stop-color="#FC68C4" offset=".926"/><stop stop-color="#FD67C4" offset=".93"/><stop stop-color="#FE67C4" offset=".934"/><stop stop-color="#FF66C4" offset=".938"/><stop stop-color="#FF66C4" offset=".993"/><stop stop-color="#FF66C4" offset="1"/></linearGradient><linearGradient x1="326.319" gradientTransform="matrix(.62478 0 0 .62462 31.35 32.254)" xmlns:xlink="http://www.w3.org/1999/xlink" y1="53.941" x2="320.083" gradientUnits="userSpaceOnUse" y2="499.755" xlink:type="simple" xlink:actuate="onLoad" id="f" xlink:show="other"><stop stop-color="#25E2D8" offset="0"/><stop stop-color="#26E2D8" offset=".004"/><stop stop-color="#27E1D8" offset=".008"/><stop stop-color="#28E1D8" offset=".012"/><stop stop-color="#28E0D7" offset=".016"/><stop stop-color="#29E0D7" offset=".02"/><stop stop-color="#2ADFD7" offset=".023"/><stop stop-color="#2BDFD7" offset=".027"/><stop stop-color="#2CDED7" offset=".031"/><stop stop-color="#2DDDD7" offset=".035"/><stop stop-color="#2EDDD7" offset=".039"/><stop stop-color="#2FDCD7" offset=".043"/><stop stop-color="#30DCD7" offset=".047"/><stop stop-color="#31DBD7" offset=".051"/><stop stop-color="#32DBD7" offset=".055"/><stop stop-color="#33DAD7" offset=".059"/><stop stop-color="#34DAD6" offset=".063"/><stop stop-color="#35D9D6" offset=".066"/><stop stop-color="#35D9D6" offset=".07"/><stop stop-color="#36D8D6" offset=".074"/><stop stop-color="#37D8D6" offset=".078"/><stop stop-color="#38D7D6" offset=".082"/><stop stop-color="#39D7D6" offset=".086"/><stop stop-color="#3AD6D6" offset=".09"/><stop stop-color="#3BD6D6" offset=".094"/><stop stop-color="#3CD5D6" offset=".098"/><stop stop-color="#3DD5D6" offset=".102"/><stop stop-color="#3ED4D6" offset=".105"/><stop stop-color="#3FD3D5" offset=".109"/><stop stop-color="#40D3D5" offset=".113"/><stop stop-color="#41D2D5" offset=".117"/><stop stop-color="#41D2D5" offset=".121"/><stop stop-color="#42D1D5" offset=".125"/><stop stop-color="#43D1D5" offset=".129"/><stop stop-color="#44D0D5" offset=".133"/><stop stop-color="#45D0D5" offset=".137"/><stop stop-color="#46CFD5" offset=".141"/><stop stop-color="#47CFD5" offset=".145"/><stop stop-color="#48CED5" offset=".148"/><stop stop-color="#49CED5" offset=".152"/><stop stop-color="#4ACDD4" offset=".156"/><stop stop-color="#4BCDD4" offset=".16"/><stop stop-color="#4CCCD4" offset=".164"/><stop stop-color="#4DCCD4" offset=".168"/><stop stop-color="#4DCBD4" offset=".172"/><stop stop-color="#4ECBD4" offset=".176"/><stop stop-color="#4FCAD4" offset=".18"/><stop stop-color="#50C9D4" offset=".184"/><stop stop-color="#51C9D4" offset=".188"/><stop stop-color="#52C8D4" offset=".191"/><stop stop-color="#53C8D4" offset=".195"/><stop stop-color="#54C7D4" offset=".199"/><stop stop-color="#55C7D3" offset=".203"/><stop stop-color="#56C6D3" offset=".207"/><stop stop-color="#57C6D3" offset=".211"/><stop stop-color="#58C5D3" offset=".215"/><stop stop-color="#59C5D3" offset=".219"/><stop stop-color="#5AC4D3" offset=".223"/><stop stop-color="#5AC4D3" offset=".227"/><stop stop-color="#5BC3D3" offset=".23"/><stop stop-color="#5CC3D3" offset=".234"/><stop stop-color="#5DC2D3" offset=".238"/><stop stop-color="#5EC2D3" offset=".242"/><stop stop-color="#5FC1D3" offset=".246"/><stop stop-color="#60C1D2" offset=".25"/><stop stop-color="#61C0D2" offset=".254"/><stop stop-color="#62BFD2" offset=".258"/><stop stop-color="#63BFD2" offset=".262"/><stop stop-color="#64BED2" offset=".266"/><stop stop-color="#65BED2" offset=".27"/><stop stop-color="#66BDD2" offset=".273"/><stop stop-color="#66BDD2" offset=".277"/><stop stop-color="#67BCD2" offset=".281"/><stop stop-color="#68BCD2" offset=".285"/><stop stop-color="#69BBD2" offset=".289"/><stop stop-color="#6ABBD2" offset=".293"/><stop stop-color="#6BBAD1" offset=".297"/><stop stop-color="#6CBAD1" offset=".301"/><stop stop-color="#6DB9D1" offset=".305"/><stop stop-color="#6EB9D1" offset=".309"/><stop stop-color="#6FB8D1" offset=".313"/><stop stop-color="#70B8D1" offset=".316"/><stop stop-color="#71B7D1" offset=".32"/><stop stop-color="#72B6D1" offset=".324"/><stop stop-color="#72B6D1" offset=".328"/><stop stop-color="#73B5D1" offset=".332"/><stop stop-color="#74B5D1" offset=".336"/><stop stop-color="#75B4D1" offset=".34"/><stop stop-color="#76B4D0" offset=".344"/><stop stop-color="#77B3D0" offset=".348"/><stop stop-color="#78B3D0" offset=".352"/><stop stop-color="#79B2D0" offset=".355"/><stop stop-color="#7AB2D0" offset=".359"/><stop stop-color="#7BB1D0" offset=".363"/><stop stop-color="#7CB1D0" offset=".367"/><stop stop-color="#7DB0D0" offset=".371"/><stop stop-color="#7EB0D0" offset=".375"/><stop stop-color="#7FAFD0" offset=".379"/><stop stop-color="#7FAFD0" offset=".383"/><stop stop-color="#80AED0" offset=".387"/><stop stop-color="#81AECF" offset=".391"/><stop stop-color="#82ADCF" offset=".395"/><stop stop-color="#83ACCF" offset=".398"/><stop stop-color="#84ACCF" offset=".402"/><stop stop-color="#85ABCF" offset=".406"/><stop stop-color="#86ABCF" offset=".41"/><stop stop-color="#87AACF" offset=".414"/><stop stop-color="#88AACF" offset=".418"/><stop stop-color="#89A9CF" offset=".422"/><stop stop-color="#8AA9CF" offset=".426"/><stop stop-color="#8BA8CF" offset=".43"/><stop stop-color="#8BA8CF" offset=".434"/><stop stop-color="#8CA7CE" offset=".438"/><stop stop-color="#8DA7CE" offset=".441"/><stop stop-color="#8EA6CE" offset=".445"/><stop stop-color="#8FA6CE" offset=".449"/><stop stop-color="#90A5CE" offset=".453"/><stop stop-color="#91A5CE" offset=".457"/><stop stop-color="#92A4CE" offset=".461"/><stop stop-color="#93A4CE" offset=".465"/><stop stop-color="#94A3CE" offset=".469"/><stop stop-color="#95A2CE" offset=".473"/><stop stop-color="#96A2CE" offset=".477"/><stop stop-color="#97A1CE" offset=".48"/><stop stop-color="#97A1CD" offset=".484"/><stop stop-color="#98A0CD" offset=".488"/><stop stop-color="#99A0CD" offset=".492"/><stop stop-color="#9A9FCD" offset=".496"/><stop stop-color="#9B9FCD" offset=".5"/><stop stop-color="#9C9ECD" offset=".504"/><stop stop-color="#9D9ECD" offset=".508"/><stop stop-color="#9E9DCD" offset=".512"/><stop stop-color="#9F9DCD" offset=".516"/><stop stop-color="#A09CCD" offset=".52"/><stop stop-color="#A19CCD" offset=".523"/><stop stop-color="#A29BCC" offset=".527"/><stop stop-color="#A39BCC" offset=".531"/><stop stop-color="#A49ACC" offset=".535"/><stop stop-color="#A49ACC" offset=".539"/><stop stop-color="#A599CC" offset=".543"/><stop stop-color="#A698CC" offset=".547"/><stop stop-color="#A798CC" offset=".551"/><stop stop-color="#A897CC" offset=".555"/><stop stop-color="#A997CC" offset=".559"/><stop stop-color="#AA96CC" offset=".563"/><stop stop-color="#AB96CC" offset=".566"/><stop stop-color="#AC95CC" offset=".57"/><stop stop-color="#AD95CB" offset=".574"/><stop stop-color="#AE94CB" offset=".578"/><stop stop-color="#AF94CB" offset=".582"/><stop stop-color="#B093CB" offset=".586"/><stop stop-color="#B093CB" offset=".59"/><stop stop-color="#B192CB" offset=".594"/><stop stop-color="#B292CB" offset=".598"/><stop stop-color="#B391CB" offset=".602"/><stop stop-color="#B491CB" offset=".605"/><stop stop-color="#B590CB" offset=".609"/><stop stop-color="#B690CB" offset=".613"/><stop stop-color="#B78FCB" offset=".617"/><stop stop-color="#B88ECA" offset=".621"/><stop stop-color="#B98ECA" offset=".625"/><stop stop-color="#BA8DCA" offset=".629"/><stop stop-color="#BB8DCA" offset=".633"/><stop stop-color="#BC8CCA" offset=".637"/><stop stop-color="#BD8CCA" offset=".641"/><stop stop-color="#BD8BCA" offset=".645"/><stop stop-color="#BE8BCA" offset=".648"/><stop stop-color="#BF8ACA" offset=".652"/><stop stop-color="#C08ACA" offset=".656"/><stop stop-color="#C189CA" offset=".66"/><stop stop-color="#C289CA" offset=".664"/><stop stop-color="#C388C9" offset=".668"/><stop stop-color="#C488C9" offset=".672"/><stop stop-color="#C587C9" offset=".676"/><stop stop-color="#C687C9" offset=".68"/><stop stop-color="#C786C9" offset=".684"/><stop stop-color="#C886C9" offset=".688"/><stop stop-color="#C985C9" offset=".691"/><stop stop-color="#C984C9" offset=".695"/><stop stop-color="#CA84C9" offset=".699"/><stop stop-color="#CB83C9" offset=".703"/><stop stop-color="#CC83C9" offset=".707"/><stop stop-color="#CD82C9" offset=".711"/><stop stop-color="#CE82C8" offset=".715"/><stop stop-color="#CF81C8" offset=".719"/><stop stop-color="#D081C8" offset=".723"/><stop stop-color="#D180C8" offset=".727"/><stop stop-color="#D280C8" offset=".73"/><stop stop-color="#D37FC8" offset=".734"/><stop stop-color="#D47FC8" offset=".738"/><stop stop-color="#D57EC8" offset=".742"/><stop stop-color="#D57EC8" offset=".746"/><stop stop-color="#D67DC8" offset=".75"/><stop stop-color="#D77DC8" offset=".754"/><stop stop-color="#D87CC8" offset=".758"/><stop stop-color="#D97CC7" offset=".762"/><stop stop-color="#DA7BC7" offset=".766"/><stop stop-color="#DB7AC7" offset=".77"/><stop stop-color="#DC7AC7" offset=".773"/><stop stop-color="#DD79C7" offset=".777"/><stop stop-color="#DE79C7" offset=".781"/><stop stop-color="#DF78C7" offset=".785"/><stop stop-color="#E078C7" offset=".789"/><stop stop-color="#E177C7" offset=".793"/><stop stop-color="#E277C7" offset=".797"/><stop stop-color="#E276C7" offset=".801"/><stop stop-color="#E376C7" offset=".805"/><stop stop-color="#E475C6" offset=".809"/><stop stop-color="#E575C6" offset=".813"/><stop stop-color="#E674C6" offset=".816"/><stop stop-color="#E774C6" offset=".82"/><stop stop-color="#E873C6" offset=".824"/><stop stop-color="#E973C6" offset=".828"/><stop stop-color="#EA72C6" offset=".832"/><stop stop-color="#EB72C6" offset=".836"/><stop stop-color="#EC71C6" offset=".84"/><stop stop-color="#ED70C6" offset=".844"/><stop stop-color="#EE70C6" offset=".848"/><stop stop-color="#EE6FC6" offset=".852"/><stop stop-color="#EF6FC5" offset=".855"/><stop stop-color="#F06EC5" offset=".859"/><stop stop-color="#F16EC5" offset=".863"/><stop stop-color="#F26DC5" offset=".867"/><stop stop-color="#F36DC5" offset=".871"/><stop stop-color="#F46CC5" offset=".875"/><stop stop-color="#F56CC5" offset=".879"/><stop stop-color="#F66BC5" offset=".883"/><stop stop-color="#F76BC5" offset=".887"/><stop stop-color="#F86AC5" offset=".891"/><stop stop-color="#F96AC5" offset=".895"/><stop stop-color="#FA69C5" offset=".898"/><stop stop-color="#FA69C4" offset=".902"/><stop stop-color="#FB68C4" offset=".906"/><stop stop-color="#FC68C4" offset=".91"/><stop stop-color="#FD67C4" offset=".914"/><stop stop-color="#FE66C4" offset=".918"/><stop stop-color="#FF66C4" offset=".922"/><stop stop-color="#FF66C4" offset=".938"/><stop stop-color="#FF66C4" offset=".988"/><stop stop-color="#FF66C4" offset="1"/></linearGradient><linearGradient x1="250.91" gradientTransform="matrix(.62478 0 0 .62462 31.35 32.254)" xmlns:xlink="http://www.w3.org/1999/xlink" y1="39.591" x2="249.089" gradientUnits="userSpaceOnUse" y2="169.791" xlink:type="simple" xlink:actuate="onLoad" id="i" xlink:show="other"><stop stop-color="#1EE6D8" offset="0"/><stop stop-color="#1EE6D8" offset=".008"/><stop stop-color="#1FE6D8" offset=".014"/><stop stop-color="#1FE6D8" offset=".016"/><stop stop-color="#1FE5D8" offset=".023"/><stop stop-color="#20E5D8" offset=".031"/><stop stop-color="#20E5D8" offset=".039"/><stop stop-color="#21E5D8" offset=".047"/><stop stop-color="#21E4D8" offset=".055"/><stop stop-color="#22E4D8" offset=".063"/><stop stop-color="#22E4D8" offset=".07"/><stop stop-color="#23E3D8" offset=".078"/><stop stop-color="#23E3D8" offset=".086"/><stop stop-color="#24E3D8" offset=".094"/><stop stop-color="#24E2D8" offset=".102"/><stop stop-color="#25E2D8" offset=".109"/><stop stop-color="#26E2D8" offset=".117"/><stop stop-color="#26E1D8" offset=".125"/><stop stop-color="#27E1D8" offset=".133"/><stop stop-color="#27E1D8" offset=".141"/><stop stop-color="#28E1D7" offset=".148"/><stop stop-color="#28E0D7" offset=".156"/><stop stop-color="#29E0D7" offset=".164"/><stop stop-color="#29E0D7" offset=".172"/><stop stop-color="#2ADFD7" offset=".18"/><stop stop-color="#2ADFD7" offset=".188"/><stop stop-color="#2BDFD7" offset=".195"/><stop stop-color="#2CDED7" offset=".203"/><stop stop-color="#2CDED7" offset=".211"/><stop stop-color="#2DDED7" offset=".219"/><stop stop-color="#2DDDD7" offset=".227"/><stop stop-color="#2EDDD7" offset=".234"/><stop stop-color="#2EDDD7" offset=".242"/><stop stop-color="#2FDDD7" offset=".25"/><stop stop-color="#2FDCD7" offset=".258"/><stop stop-color="#30DCD7" offset=".266"/><stop stop-color="#30DCD7" offset=".273"/><stop stop-color="#31DBD7" offset=".281"/><stop stop-color="#31DBD7" offset=".289"/><stop stop-color="#32DBD7" offset=".297"/><stop stop-color="#33DAD7" offset=".305"/><stop stop-color="#33DAD6" offset=".313"/><stop stop-color="#34DAD6" offset=".32"/><stop stop-color="#34D9D6" offset=".328"/><stop stop-color="#35D9D6" offset=".336"/><stop stop-color="#35D9D6" offset=".344"/><stop stop-color="#36D9D6" offset=".352"/><stop stop-color="#36D8D6" offset=".359"/><stop stop-color="#37D8D6" offset=".367"/><stop stop-color="#37D8D6" offset=".375"/><stop stop-color="#38D7D6" offset=".383"/><stop stop-color="#38D7D6" offset=".391"/><stop stop-color="#39D7D6" offset=".398"/><stop stop-color="#3AD6D6" offset=".406"/><stop stop-color="#3AD6D6" offset=".414"/><stop stop-color="#3BD6D6" offset=".422"/><stop stop-color="#3BD5D6" offset=".43"/><stop stop-color="#3CD5D6" offset=".438"/><stop stop-color="#3CD5D6" offset=".445"/><stop stop-color="#3DD5D6" offset=".453"/><stop stop-color="#3DD4D6" offset=".461"/><stop stop-color="#3ED4D5" offset=".469"/><stop stop-color="#3ED4D5" offset=".477"/><stop stop-color="#3FD3D5" offset=".484"/><stop stop-color="#40D3D5" offset=".492"/><stop stop-color="#40D3D5" offset=".5"/><stop stop-color="#41D2D5" offset=".508"/><stop stop-color="#41D2D5" offset=".516"/><stop stop-color="#42D2D5" offset=".523"/><stop stop-color="#42D1D5" offset=".531"/><stop stop-color="#43D1D5" offset=".539"/><stop stop-color="#43D1D5" offset=".547"/><stop stop-color="#44D1D5" offset=".555"/><stop stop-color="#44D0D5" offset=".563"/><stop stop-color="#45D0D5" offset=".57"/><stop stop-color="#45D0D5" offset=".578"/><stop stop-color="#46CFD5" offset=".586"/><stop stop-color="#47CFD5" offset=".594"/><stop stop-color="#47CFD5" offset=".602"/><stop stop-color="#48CED5" offset=".609"/><stop stop-color="#48CED5" offset=".617"/><stop stop-color="#49CED5" offset=".625"/><stop stop-color="#49CDD4" offset=".633"/><stop stop-color="#4ACDD4" offset=".641"/><stop stop-color="#4ACDD4" offset=".648"/><stop stop-color="#4BCDD4" offset=".656"/><stop stop-color="#4BCCD4" offset=".664"/><stop stop-color="#4CCCD4" offset=".672"/><stop stop-color="#4CCCD4" offset=".68"/><stop stop-color="#4DCBD4" offset=".688"/><stop stop-color="#4ECBD4" offset=".695"/><stop stop-color="#4ECBD4" offset=".703"/><stop stop-color="#4FCAD4" offset=".711"/><stop stop-color="#4FCAD4" offset=".719"/><stop stop-color="#50CAD4" offset=".727"/><stop stop-color="#50C9D4" offset=".734"/><stop stop-color="#51C9D4" offset=".742"/><stop stop-color="#51C9D4" offset=".75"/><stop stop-color="#52C9D4" offset=".758"/><stop stop-color="#52C8D4" offset=".766"/><stop stop-color="#53C8D4" offset=".773"/><stop stop-color="#53C8D4" offset=".781"/><stop stop-color="#54C7D3" offset=".789"/><stop stop-color="#55C7D3" offset=".797"/><stop stop-color="#55C7D3" offset=".805"/><stop stop-color="#56C6D3" offset=".813"/><stop stop-color="#56C6D3" offset=".82"/><stop stop-color="#57C6D3" offset=".828"/><stop stop-color="#57C5D3" offset=".836"/><stop stop-color="#58C5D3" offset=".844"/><stop stop-color="#58C5D3" offset=".852"/><stop stop-color="#59C5D3" offset=".859"/><stop stop-color="#59C4D3" offset=".867"/><stop stop-color="#5AC4D3" offset=".875"/><stop stop-color="#5BC4D3" offset=".883"/><stop stop-color="#5BC3D3" offset=".891"/><stop stop-color="#5CC3D3" offset=".898"/><stop stop-color="#5CC3D3" offset=".906"/><stop stop-color="#5DC2D3" offset=".914"/><stop stop-color="#5DC2D3" offset=".922"/><stop stop-color="#5EC2D3" offset=".93"/><stop stop-color="#5EC1D3" offset=".938"/><stop stop-color="#5FC1D3" offset=".945"/><stop stop-color="#5FC1D2" offset=".953"/><stop stop-color="#60C1D2" offset=".961"/><stop stop-color="#60C0D2" offset=".969"/><stop stop-color="#61C0D2" offset=".977"/><stop stop-color="#62C0D2" offset=".984"/><stop stop-color="#62BFD2" offset=".986"/><stop stop-color="#62BFD2" offset=".992"/><stop stop-color="#63BFD2" offset="1"/></linearGradient><linearGradient x1="154.133" gradientTransform="matrix(.62478 0 0 .62462 31.35 32.254)" xmlns:xlink="http://www.w3.org/1999/xlink" y1="-.443" x2="153.223" gradientUnits="userSpaceOnUse" y2="64.657" xlink:type="simple" xlink:actuate="onLoad" id="l" xlink:show="other"><stop stop-color="#17EAD9" offset="0"/><stop stop-color="#17EAD9" offset=".014"/><stop stop-color="#17EAD9" offset=".25"/><stop stop-color="#17EAD9" offset=".375"/><stop stop-color="#17EAD9" offset=".406"/><stop stop-color="#18EAD9" offset=".422"/><stop stop-color="#18E9D9" offset=".438"/><stop stop-color="#19E9D9" offset=".453"/><stop stop-color="#19E9D9" offset=".469"/><stop stop-color="#1AE9D9" offset=".484"/><stop stop-color="#1AE8D9" offset=".5"/><stop stop-color="#1BE8D9" offset=".516"/><stop stop-color="#1BE8D9" offset=".531"/><stop stop-color="#1CE7D9" offset=".547"/><stop stop-color="#1CE7D9" offset=".563"/><stop stop-color="#1DE7D8" offset=".578"/><stop stop-color="#1DE6D8" offset=".594"/><stop stop-color="#1EE6D8" offset=".609"/><stop stop-color="#1FE6D8" offset=".625"/><stop stop-color="#1FE5D8" offset=".641"/><stop stop-color="#20E5D8" offset=".656"/><stop stop-color="#20E5D8" offset=".672"/><stop stop-color="#21E5D8" offset=".688"/><stop stop-color="#21E4D8" offset=".703"/><stop stop-color="#22E4D8" offset=".719"/><stop stop-color="#22E4D8" offset=".734"/><stop stop-color="#23E3D8" offset=".75"/><stop stop-color="#23E3D8" offset=".766"/><stop stop-color="#24E3D8" offset=".781"/><stop stop-color="#24E2D8" offset=".797"/><stop stop-color="#25E2D8" offset=".813"/><stop stop-color="#26E2D8" offset=".828"/><stop stop-color="#26E1D8" offset=".844"/><stop stop-color="#27E1D8" offset=".859"/><stop stop-color="#27E1D8" offset=".875"/><stop stop-color="#28E1D7" offset=".891"/><stop stop-color="#28E0D7" offset=".906"/><stop stop-color="#29E0D7" offset=".922"/><stop stop-color="#29E0D7" offset=".938"/><stop stop-color="#2ADFD7" offset=".953"/><stop stop-color="#2ADFD7" offset=".969"/><stop stop-color="#2BDFD7" offset=".984"/><stop stop-color="#2BDED7" offset=".986"/><stop stop-color="#2CDED7" offset="1"/></linearGradient><linearGradient x1="346.777" gradientTransform="matrix(.62478 0 0 .62462 31.35 32.254)" xmlns:xlink="http://www.w3.org/1999/xlink" y1="-.443" x2="345.867" gradientUnits="userSpaceOnUse" y2="64.657" xlink:type="simple" xlink:actuate="onLoad" id="o" xlink:show="other"><stop stop-color="#17EAD9" offset="0"/><stop stop-color="#17EAD9" offset=".014"/><stop stop-color="#17EAD9" offset=".25"/><stop stop-color="#17EAD9" offset=".375"/><stop stop-color="#17EAD9" offset=".438"/><stop stop-color="#17EAD9" offset=".453"/><stop stop-color="#18EAD9" offset=".469"/><stop stop-color="#18E9D9" offset=".484"/><stop stop-color="#19E9D9" offset=".5"/><stop stop-color="#19E9D9" offset=".516"/><stop stop-color="#1AE8D9" offset=".531"/><stop stop-color="#1AE8D9" offset=".547"/><stop stop-color="#1BE8D9" offset=".563"/><stop stop-color="#1BE8D9" offset=".578"/><stop stop-color="#1CE7D9" offset=".594"/><stop stop-color="#1DE7D8" offset=".609"/><stop stop-color="#1DE7D8" offset=".625"/><stop stop-color="#1EE6D8" offset=".641"/><stop stop-color="#1EE6D8" offset=".656"/><stop stop-color="#1FE6D8" offset=".672"/><stop stop-color="#1FE5D8" offset=".688"/><stop stop-color="#20E5D8" offset=".703"/><stop stop-color="#20E5D8" offset=".719"/><stop stop-color="#21E4D8" offset=".734"/><stop stop-color="#21E4D8" offset=".75"/><stop stop-color="#22E4D8" offset=".766"/><stop stop-color="#23E4D8" offset=".781"/><stop stop-color="#23E3D8" offset=".797"/><stop stop-color="#24E3D8" offset=".813"/><stop stop-color="#24E3D8" offset=".828"/><stop stop-color="#25E2D8" offset=".844"/><stop stop-color="#25E2D8" offset=".859"/><stop stop-color="#26E2D8" offset=".875"/><stop stop-color="#26E1D8" offset=".891"/><stop stop-color="#27E1D8" offset=".906"/><stop stop-color="#27E1D8" offset=".922"/><stop stop-color="#28E0D7" offset=".938"/><stop stop-color="#28E0D7" offset=".953"/><stop stop-color="#29E0D7" offset=".969"/><stop stop-color="#2AE0D7" offset=".984"/><stop stop-color="#2ADFD7" offset=".986"/><stop stop-color="#2ADFD7" offset="1"/></linearGradient></defs><path fill="#FFF" d="M-37.5 -37.5H412.5V412.5H-37.5z"/><path fill="#FFF" d="M-37.5 -37.5H412.5V412.5H-37.5z"/><path fill="#FFF" d="M-37.5 -37.5H412.5V412.5H-37.5z"/><g clip-path="url(#a)"><g clip-path="url(#b)"><path fill="url(#c)" d="M 25.289062 67.550781 L 25.289062 336.074219 L 167.523438 336.074219 L 167.523438 67.550781 Z M 25.289062 67.550781"/></g></g><g clip-path="url(#d)"><g clip-path="url(#e)"><path fill="url(#f)" d="M 112.71875 67.546875 L 112.71875 342.753906 L 349.800781 342.753906 L 349.800781 67.546875 Z M 112.71875 67.546875"/></g></g><g clip-path="url(#g)"><g clip-path="url(#h)"><path fill="url(#i)" d="M 147.425781 57.535156 L 147.425781 137.757812 L 227.664062 137.757812 L 227.664062 57.535156 Z M 147.425781 57.535156"/></g></g><g clip-path="url(#j)"><g clip-path="url(#k)"><path fill="url(#l)" d="M 107.304688 32.253906 L 107.304688 72.363281 L 147.425781 72.363281 L 147.425781 32.253906 Z M 107.304688 32.253906"/></g></g><g clip-path="url(#m)"><g clip-path="url(#n)"><path fill="url(#o)" d="M 227.664062 32.253906 L 227.664062 72.363281 L 267.785156 72.363281 L 267.785156 32.253906 Z M 227.664062 32.253906"/></g></g></svg>