<svg width="720" height="900" viewBox="0 0 720 900" fill="none" xmlns="http://www.w3.org/2000/svg">
<mask id="mask0_8_1190" style="mask-type:alpha" maskUnits="userSpaceOnUse" x="274" y="142" width="787" height="708">
<path d="M634.592 842.196C812.431 889.005 970.131 701.421 1026.75 601.778C1037.72 584.812 1059.87 535.232 1060.74 472.638C1061.83 394.395 902.833 395.763 848.666 357.261C794.5 318.76 756.29 239.66 677.506 172.542C598.721 105.425 507.427 159.927 481.817 251.217C456.208 342.508 303.696 249.134 277.173 454.027C250.65 658.92 412.293 783.686 634.592 842.196Z" fill="#0B56FA"/>
</mask>
<g mask="url(#mask0_8_1190)">
<rect x="321.307" y="-92.3202" width="1256.55" height="8.35841" transform="rotate(36.8196 321.307 -92.3202)" fill="#25356A" fill-opacity="0.05"/>
<rect x="307.948" y="-74.4775" width="1256.55" height="8.35841" transform="rotate(36.8196 307.948 -74.4775)" fill="#25356A" fill-opacity="0.05"/>
<rect x="294.591" y="-56.6345" width="1256.55" height="8.35841" transform="rotate(36.8196 294.591 -56.6345)" fill="#25356A" fill-opacity="0.05"/>
<rect x="281.232" y="-38.7915" width="1256.55" height="8.35841" transform="rotate(36.8196 281.232 -38.7915)" fill="#25356A" fill-opacity="0.05"/>
<rect x="267.875" y="-20.9485" width="1256.55" height="8.35841" transform="rotate(36.8196 267.875 -20.9485)" fill="#25356A" fill-opacity="0.05"/>
<rect x="254.517" y="-3.10547" width="1256.55" height="8.35841" transform="rotate(36.8196 254.517 -3.10547)" fill="#25356A" fill-opacity="0.05"/>
<rect x="241.159" y="14.7375" width="1256.55" height="8.35841" transform="rotate(36.8196 241.159 14.7375)" fill="#25356A" fill-opacity="0.05"/>
<rect x="227.802" y="32.5806" width="1256.55" height="8.35841" transform="rotate(36.8196 227.802 32.5806)" fill="#25356A" fill-opacity="0.05"/>
<rect x="214.444" y="50.4236" width="1256.55" height="8.35841" transform="rotate(36.8196 214.444 50.4236)" fill="#25356A" fill-opacity="0.05"/>
<rect x="201.086" y="68.2666" width="1256.55" height="8.35841" transform="rotate(36.8196 201.086 68.2666)" fill="#25356A" fill-opacity="0.05"/>
<rect x="187.728" y="86.1096" width="1256.55" height="8.35841" transform="rotate(36.8196 187.728 86.1096)" fill="#25356A" fill-opacity="0.05"/>
<rect x="174.37" y="103.953" width="1256.55" height="8.35841" transform="rotate(36.8196 174.37 103.953)" fill="#25356A" fill-opacity="0.05"/>
<rect x="161.012" y="121.796" width="1256.55" height="8.35841" transform="rotate(36.8196 161.012 121.796)" fill="#25356A" fill-opacity="0.05"/>
<rect x="147.655" y="139.639" width="1256.55" height="8.35841" transform="rotate(36.8196 147.655 139.639)" fill="#25356A" fill-opacity="0.05"/>
<rect x="134.297" y="157.482" width="1256.55" height="8.35841" transform="rotate(36.8196 134.297 157.482)" fill="#25356A" fill-opacity="0.05"/>
<rect x="120.939" y="175.325" width="1256.55" height="8.35841" transform="rotate(36.8196 120.939 175.325)" fill="#25356A" fill-opacity="0.05"/>
<rect x="107.581" y="193.168" width="1256.55" height="8.35841" transform="rotate(36.8196 107.581 193.168)" fill="#25356A" fill-opacity="0.05"/>
<rect x="94.2236" y="211.011" width="1256.55" height="8.35841" transform="rotate(36.8196 94.2236 211.011)" fill="#25356A" fill-opacity="0.05"/>
<rect x="80.8658" y="228.854" width="1256.55" height="8.35841" transform="rotate(36.8196 80.8658 228.854)" fill="#25356A" fill-opacity="0.05"/>
<rect x="67.5081" y="246.697" width="1256.55" height="8.35841" transform="rotate(36.8196 67.5081 246.697)" fill="#25356A" fill-opacity="0.05"/>
<rect x="54.1503" y="264.54" width="1256.55" height="8.35841" transform="rotate(36.8196 54.1503 264.54)" fill="#25356A" fill-opacity="0.05"/>
<rect x="39.1228" y="284.613" width="1256.55" height="8.35841" transform="rotate(36.8196 39.1228 284.613)" fill="#25356A" fill-opacity="0.05"/>
<rect x="24.0952" y="304.687" width="1256.55" height="8.35841" transform="rotate(36.8196 24.0952 304.687)" fill="#25356A" fill-opacity="0.05"/>
<rect x="9.06763" y="324.76" width="1256.55" height="8.35841" transform="rotate(36.8196 9.06763 324.76)" fill="#25356A" fill-opacity="0.05"/>
<rect x="-5.95996" y="344.833" width="1256.55" height="8.35841" transform="rotate(36.8196 -5.95996 344.833)" fill="#25356A" fill-opacity="0.05"/>
<rect x="-20.9869" y="364.907" width="1256.55" height="8.35841" transform="rotate(36.8196 -20.9869 364.907)" fill="#25356A" fill-opacity="0.05"/>
<rect x="-36.0145" y="384.98" width="1256.55" height="8.35841" transform="rotate(36.8196 -36.0145 384.98)" fill="#25356A" fill-opacity="0.05"/>
</g>
</svg>
