<svg width="419" height="789" viewBox="0 0 419 789" fill="none" xmlns="http://www.w3.org/2000/svg">
<g opacity="0.05">
<path opacity="0.91" d="M275.117 174.125C-60.0647 -119.596 -178.262 45.4697 -186.528 58.0501C-186.874 58.577 -186.997 59.1239 -186.991 59.7543L-183.061 482.638C-181.901 607.457 -81.271 709.781 40.5524 682.575C179.056 651.644 341.425 580.378 397.401 416.846C451.187 259.713 301.966 197.652 275.117 174.125Z" fill="#6FCF97"/>
</g>
<mask id="mask0_8_1222" style="mask-type:alpha" maskUnits="userSpaceOnUse" x="-20" y="538" width="362" height="390">
<path opacity="0.69" d="M260.682 643.312C60.4857 468.095 -12.2673 562.01 -19.407 572.441C-19.834 573.065 -19.9963 573.746 -19.9893 574.502L-18.8363 698.403C-17.4447 847.951 113.604 983.175 240.673 904.308C282.152 878.563 317.283 842.121 334.955 790.556C367.623 695.233 276.99 657.585 260.682 643.312Z" fill="#25356A" fill-opacity="0.35"/>
</mask>
<g mask="url(#mask0_8_1222)">
<circle cx="-0.953387" cy="533.072" r="5.07203" fill="#25356A" fill-opacity="0.35"/>
<circle cx="15.9534" cy="533.072" r="5.07203" fill="#25356A" fill-opacity="0.35"/>
<circle cx="32.8602" cy="533.072" r="5.07203" fill="#25356A" fill-opacity="0.35"/>
<circle cx="49.7669" cy="533.072" r="5.07203" fill="#25356A" fill-opacity="0.35"/>
<circle cx="66.6737" cy="533.072" r="5.07203" fill="#25356A" fill-opacity="0.35"/>
<circle cx="83.5805" cy="533.072" r="5.07203" fill="#25356A" fill-opacity="0.35"/>
<circle cx="100.487" cy="533.072" r="5.07203" fill="#25356A" fill-opacity="0.35"/>
<circle cx="117.394" cy="533.072" r="5.07203" fill="#25356A" fill-opacity="0.35"/>
<circle cx="134.301" cy="533.072" r="5.07203" fill="#25356A" fill-opacity="0.35"/>
<circle cx="151.208" cy="533.072" r="5.07203" fill="#25356A" fill-opacity="0.35"/>
<circle cx="168.114" cy="533.072" r="5.07203" fill="#25356A" fill-opacity="0.35"/>
<circle cx="185.021" cy="533.072" r="5.07203" fill="#25356A" fill-opacity="0.35"/>
<circle cx="201.928" cy="533.072" r="5.07203" fill="#25356A" fill-opacity="0.35"/>
<circle cx="218.835" cy="533.072" r="5.07203" fill="#25356A" fill-opacity="0.35"/>
<circle cx="235.742" cy="533.072" r="5.07203" fill="#25356A" fill-opacity="0.35"/>
<circle cx="252.648" cy="533.072" r="5.07203" fill="#25356A" fill-opacity="0.35"/>
<circle cx="269.555" cy="533.072" r="5.07203" fill="#25356A" fill-opacity="0.35"/>
<circle cx="286.462" cy="533.072" r="5.07203" fill="#25356A" fill-opacity="0.35"/>
<circle cx="303.369" cy="533.072" r="5.07203" fill="#25356A" fill-opacity="0.35"/>
<circle cx="320.275" cy="533.072" r="5.07203" fill="#25356A" fill-opacity="0.35"/>
<circle cx="337.182" cy="533.072" r="5.07203" fill="#25356A" fill-opacity="0.35"/>
<circle cx="15.9534" cy="549.979" r="5.07203" fill="#25356A" fill-opacity="0.35"/>
<circle cx="32.8602" cy="549.979" r="5.07203" fill="#25356A" fill-opacity="0.35"/>
<circle cx="49.7669" cy="549.979" r="5.07203" fill="#25356A" fill-opacity="0.35"/>
<circle cx="66.6737" cy="549.979" r="5.07203" fill="#25356A" fill-opacity="0.35"/>
<circle cx="83.5805" cy="549.979" r="5.07203" fill="#25356A" fill-opacity="0.35"/>
<circle cx="134.301" cy="549.979" r="5.07203" fill="#25356A" fill-opacity="0.35"/>
<circle cx="151.208" cy="549.979" r="5.07203" fill="#25356A" fill-opacity="0.35"/>
<circle cx="168.114" cy="549.979" r="5.07203" fill="#25356A" fill-opacity="0.35"/>
<circle cx="185.021" cy="549.979" r="5.07203" fill="#25356A" fill-opacity="0.35"/>
<circle cx="201.928" cy="549.979" r="5.07203" fill="#25356A" fill-opacity="0.35"/>
<circle cx="218.835" cy="549.979" r="5.07203" fill="#25356A" fill-opacity="0.35"/>
<circle cx="235.742" cy="549.979" r="5.07203" fill="#25356A" fill-opacity="0.35"/>
<circle cx="252.648" cy="549.979" r="5.07203" fill="#25356A" fill-opacity="0.35"/>
<circle cx="269.555" cy="549.979" r="5.07203" fill="#25356A" fill-opacity="0.35"/>
<circle cx="286.462" cy="549.979" r="5.07203" fill="#25356A" fill-opacity="0.35"/>
<circle cx="303.369" cy="549.979" r="5.07203" fill="#25356A" fill-opacity="0.35"/>
<circle cx="320.275" cy="549.979" r="5.07203" fill="#25356A" fill-opacity="0.35"/>
<circle cx="337.182" cy="549.979" r="5.07203" fill="#25356A" fill-opacity="0.35"/>
<circle cx="-0.953387" cy="566.886" r="5.07203" fill="#25356A" fill-opacity="0.35"/>
<circle cx="15.9534" cy="566.886" r="5.07203" fill="#25356A" fill-opacity="0.35"/>
<circle cx="32.8602" cy="566.886" r="5.07203" fill="#25356A" fill-opacity="0.35"/>
<circle cx="49.7669" cy="566.886" r="5.07203" fill="#25356A" fill-opacity="0.35"/>
<circle cx="66.6737" cy="566.886" r="5.07203" fill="#25356A" fill-opacity="0.35"/>
<circle cx="83.5805" cy="566.886" r="5.07203" fill="#25356A" fill-opacity="0.35"/>
<circle cx="100.487" cy="566.886" r="5.07203" fill="#25356A" fill-opacity="0.35"/>
<circle cx="117.394" cy="566.886" r="5.07203" fill="#25356A" fill-opacity="0.35"/>
<circle cx="134.301" cy="566.886" r="5.07203" fill="#25356A" fill-opacity="0.35"/>
<circle cx="168.114" cy="566.886" r="5.07203" fill="#25356A" fill-opacity="0.35"/>
<circle cx="185.021" cy="566.886" r="5.07203" fill="#25356A" fill-opacity="0.35"/>
<circle cx="201.928" cy="566.886" r="5.07203" fill="#25356A" fill-opacity="0.35"/>
<circle cx="218.835" cy="566.886" r="5.07203" fill="#25356A" fill-opacity="0.35"/>
<circle cx="235.742" cy="566.886" r="5.07203" fill="#25356A" fill-opacity="0.35"/>
<circle cx="252.648" cy="566.886" r="5.07203" fill="#25356A" fill-opacity="0.35"/>
<circle cx="269.555" cy="566.886" r="5.07203" fill="#25356A" fill-opacity="0.35"/>
<circle cx="286.462" cy="566.886" r="5.07203" fill="#25356A" fill-opacity="0.35"/>
<circle cx="303.369" cy="566.886" r="5.07203" fill="#25356A" fill-opacity="0.35"/>
<circle cx="320.275" cy="566.886" r="5.07203" fill="#25356A" fill-opacity="0.35"/>
<circle cx="337.182" cy="566.886" r="5.07203" fill="#25356A" fill-opacity="0.35"/>
<circle cx="-0.953387" cy="583.792" r="5.07203" fill="#25356A" fill-opacity="0.35"/>
<circle cx="15.9534" cy="583.792" r="5.07203" fill="#25356A" fill-opacity="0.35"/>
<circle cx="32.8602" cy="583.792" r="5.07203" fill="#25356A" fill-opacity="0.35"/>
<circle cx="49.7669" cy="583.792" r="5.07203" fill="#25356A" fill-opacity="0.35"/>
<circle cx="66.6737" cy="583.792" r="5.07203" fill="#25356A" fill-opacity="0.35"/>
<circle cx="83.5805" cy="583.792" r="5.07203" fill="#25356A" fill-opacity="0.35"/>
<circle cx="100.487" cy="583.792" r="5.07203" fill="#25356A" fill-opacity="0.35"/>
<circle cx="117.394" cy="583.792" r="5.07203" fill="#25356A" fill-opacity="0.35"/>
<circle cx="134.301" cy="583.792" r="5.07203" fill="#25356A" fill-opacity="0.35"/>
<circle cx="151.208" cy="583.792" r="5.07203" fill="#25356A" fill-opacity="0.35"/>
<circle cx="168.114" cy="583.792" r="5.07203" fill="#25356A" fill-opacity="0.35"/>
<circle cx="201.928" cy="583.792" r="5.07203" fill="#25356A" fill-opacity="0.35"/>
<circle cx="218.835" cy="583.792" r="5.07203" fill="#25356A" fill-opacity="0.35"/>
<circle cx="235.742" cy="583.792" r="5.07203" fill="#25356A" fill-opacity="0.35"/>
<circle cx="252.648" cy="583.792" r="5.07203" fill="#25356A" fill-opacity="0.35"/>
<circle cx="269.555" cy="583.792" r="5.07203" fill="#25356A" fill-opacity="0.35"/>
<circle cx="286.462" cy="583.792" r="5.07203" fill="#25356A" fill-opacity="0.35"/>
<circle cx="303.369" cy="583.792" r="5.07203" fill="#25356A" fill-opacity="0.35"/>
<circle cx="320.275" cy="583.792" r="5.07203" fill="#25356A" fill-opacity="0.35"/>
<circle cx="337.182" cy="583.792" r="5.07203" fill="#25356A" fill-opacity="0.35"/>
<circle cx="-0.953387" cy="600.699" r="5.07203" fill="#25356A" fill-opacity="0.35"/>
<circle cx="15.9534" cy="600.699" r="5.07203" fill="#25356A" fill-opacity="0.35"/>
<circle cx="32.8602" cy="600.699" r="5.07203" fill="#25356A" fill-opacity="0.35"/>
<circle cx="49.7669" cy="600.699" r="5.07203" fill="#25356A" fill-opacity="0.35"/>
<circle cx="66.6737" cy="600.699" r="5.07203" fill="#25356A" fill-opacity="0.35"/>
<circle cx="83.5805" cy="600.699" r="5.07203" fill="#25356A" fill-opacity="0.35"/>
<circle cx="100.487" cy="600.699" r="5.07203" fill="#25356A" fill-opacity="0.35"/>
<circle cx="117.394" cy="600.699" r="5.07203" fill="#25356A" fill-opacity="0.35"/>
<circle cx="134.301" cy="600.699" r="5.07203" fill="#25356A" fill-opacity="0.35"/>
<circle cx="151.208" cy="600.699" r="5.07203" fill="#25356A" fill-opacity="0.35"/>
<circle cx="168.114" cy="600.699" r="5.07203" fill="#25356A" fill-opacity="0.35"/>
<circle cx="185.021" cy="600.699" r="5.07203" fill="#25356A" fill-opacity="0.35"/>
<circle cx="218.835" cy="600.699" r="5.07203" fill="#25356A" fill-opacity="0.35"/>
<circle cx="235.742" cy="600.699" r="5.07203" fill="#25356A" fill-opacity="0.35"/>
<circle cx="252.648" cy="600.699" r="5.07203" fill="#25356A" fill-opacity="0.35"/>
<circle cx="269.555" cy="600.699" r="5.07203" fill="#25356A" fill-opacity="0.35"/>
<circle cx="286.462" cy="600.699" r="5.07203" fill="#25356A" fill-opacity="0.35"/>
<circle cx="303.369" cy="600.699" r="5.07203" fill="#25356A" fill-opacity="0.35"/>
<circle cx="320.275" cy="600.699" r="5.07203" fill="#25356A" fill-opacity="0.35"/>
<circle cx="337.182" cy="600.699" r="5.07203" fill="#25356A" fill-opacity="0.35"/>
<circle cx="-0.953387" cy="617.606" r="5.07203" fill="#25356A" fill-opacity="0.35"/>
<circle cx="15.9534" cy="617.606" r="5.07203" fill="#25356A" fill-opacity="0.35"/>
<circle cx="32.8602" cy="617.606" r="5.07203" fill="#25356A" fill-opacity="0.35"/>
<circle cx="49.7669" cy="617.606" r="5.07203" fill="#25356A" fill-opacity="0.35"/>
<circle cx="66.6737" cy="617.606" r="5.07203" fill="#25356A" fill-opacity="0.35"/>
<circle cx="83.5805" cy="617.606" r="5.07203" fill="#25356A" fill-opacity="0.35"/>
<circle cx="100.487" cy="617.606" r="5.07203" fill="#25356A" fill-opacity="0.35"/>
<circle cx="117.394" cy="617.606" r="5.07203" fill="#25356A" fill-opacity="0.35"/>
<circle cx="134.301" cy="617.606" r="5.07203" fill="#25356A" fill-opacity="0.35"/>
<circle cx="151.208" cy="617.606" r="5.07203" fill="#25356A" fill-opacity="0.35"/>
<circle cx="168.114" cy="617.606" r="5.07203" fill="#25356A" fill-opacity="0.35"/>
<circle cx="185.021" cy="617.606" r="5.07203" fill="#25356A" fill-opacity="0.35"/>
<circle cx="201.928" cy="617.606" r="5.07203" fill="#25356A" fill-opacity="0.35"/>
<circle cx="218.835" cy="617.606" r="5.07203" fill="#25356A" fill-opacity="0.35"/>
<circle cx="252.648" cy="617.606" r="5.07203" fill="#25356A" fill-opacity="0.35"/>
<circle cx="269.555" cy="617.606" r="5.07203" fill="#25356A" fill-opacity="0.35"/>
<circle cx="286.462" cy="617.606" r="5.07203" fill="#25356A" fill-opacity="0.35"/>
<circle cx="303.369" cy="617.606" r="5.07203" fill="#25356A" fill-opacity="0.35"/>
<circle cx="320.275" cy="617.606" r="5.07203" fill="#25356A" fill-opacity="0.35"/>
<circle cx="337.182" cy="617.606" r="5.07203" fill="#25356A" fill-opacity="0.35"/>
<circle cx="-0.953387" cy="634.513" r="5.07203" fill="#25356A" fill-opacity="0.35"/>
<circle cx="15.9534" cy="634.513" r="5.07203" fill="#25356A" fill-opacity="0.35"/>
<circle cx="32.8602" cy="634.513" r="5.07203" fill="#25356A" fill-opacity="0.35"/>
<circle cx="49.7669" cy="634.513" r="5.07203" fill="#25356A" fill-opacity="0.35"/>
<circle cx="66.6737" cy="634.513" r="5.07203" fill="#25356A" fill-opacity="0.35"/>
<circle cx="83.5805" cy="634.513" r="5.07203" fill="#25356A" fill-opacity="0.35"/>
<circle cx="100.487" cy="634.513" r="5.07203" fill="#25356A" fill-opacity="0.35"/>
<circle cx="117.394" cy="634.513" r="5.07203" fill="#25356A" fill-opacity="0.35"/>
<circle cx="134.301" cy="634.513" r="5.07203" fill="#25356A" fill-opacity="0.35"/>
<circle cx="151.208" cy="634.513" r="5.07203" fill="#25356A" fill-opacity="0.35"/>
<circle cx="168.114" cy="634.513" r="5.07203" fill="#25356A" fill-opacity="0.35"/>
<circle cx="185.021" cy="634.513" r="5.07203" fill="#25356A" fill-opacity="0.35"/>
<circle cx="201.928" cy="634.513" r="5.07203" fill="#25356A" fill-opacity="0.35"/>
<circle cx="218.835" cy="634.513" r="5.07203" fill="#25356A" fill-opacity="0.35"/>
<circle cx="235.742" cy="634.513" r="5.07203" fill="#25356A" fill-opacity="0.35"/>
<circle cx="269.555" cy="634.513" r="5.07203" fill="#25356A" fill-opacity="0.35"/>
<circle cx="286.462" cy="634.513" r="5.07203" fill="#25356A" fill-opacity="0.35"/>
<circle cx="303.369" cy="634.513" r="5.07203" fill="#25356A" fill-opacity="0.35"/>
<circle cx="320.275" cy="634.513" r="5.07203" fill="#25356A" fill-opacity="0.35"/>
<circle cx="337.182" cy="634.513" r="5.07203" fill="#25356A" fill-opacity="0.35"/>
<circle cx="-0.953387" cy="651.42" r="5.07203" fill="#25356A" fill-opacity="0.35"/>
<circle cx="15.9534" cy="651.42" r="5.07203" fill="#25356A" fill-opacity="0.35"/>
<circle cx="32.8602" cy="651.42" r="5.07203" fill="#25356A" fill-opacity="0.35"/>
<circle cx="49.7669" cy="651.42" r="5.07203" fill="#25356A" fill-opacity="0.35"/>
<circle cx="66.6737" cy="651.42" r="5.07203" fill="#25356A" fill-opacity="0.35"/>
<circle cx="83.5805" cy="651.42" r="5.07203" fill="#25356A" fill-opacity="0.35"/>
<circle cx="100.487" cy="651.42" r="5.07203" fill="#25356A" fill-opacity="0.35"/>
<circle cx="117.394" cy="651.42" r="5.07203" fill="#25356A" fill-opacity="0.35"/>
<circle cx="134.301" cy="651.42" r="5.07203" fill="#25356A" fill-opacity="0.35"/>
<circle cx="151.208" cy="651.42" r="5.07203" fill="#25356A" fill-opacity="0.35"/>
<circle cx="168.114" cy="651.42" r="5.07203" fill="#25356A" fill-opacity="0.35"/>
<circle cx="185.021" cy="651.42" r="5.07203" fill="#25356A" fill-opacity="0.35"/>
<circle cx="201.928" cy="651.42" r="5.07203" fill="#25356A" fill-opacity="0.35"/>
<circle cx="218.835" cy="651.42" r="5.07203" fill="#25356A" fill-opacity="0.35"/>
<circle cx="235.742" cy="651.42" r="5.07203" fill="#25356A" fill-opacity="0.35"/>
<circle cx="252.648" cy="651.42" r="5.07203" fill="#25356A" fill-opacity="0.35"/>
<circle cx="286.462" cy="651.42" r="5.07203" fill="#25356A" fill-opacity="0.35"/>
<circle cx="303.369" cy="651.42" r="5.07203" fill="#25356A" fill-opacity="0.35"/>
<circle cx="320.275" cy="651.42" r="5.07203" fill="#25356A" fill-opacity="0.35"/>
<circle cx="337.182" cy="651.42" r="5.07203" fill="#25356A" fill-opacity="0.35"/>
<circle cx="-0.953387" cy="668.326" r="5.07203" fill="#25356A" fill-opacity="0.35"/>
<circle cx="15.9534" cy="668.326" r="5.07203" fill="#25356A" fill-opacity="0.35"/>
<circle cx="32.8602" cy="668.326" r="5.07203" fill="#25356A" fill-opacity="0.35"/>
<circle cx="49.7669" cy="668.326" r="5.07203" fill="#25356A" fill-opacity="0.35"/>
<circle cx="66.6737" cy="668.326" r="5.07203" fill="#25356A" fill-opacity="0.35"/>
<circle cx="83.5805" cy="668.326" r="5.07203" fill="#25356A" fill-opacity="0.35"/>
<circle cx="100.487" cy="668.326" r="5.07203" fill="#25356A" fill-opacity="0.35"/>
<circle cx="117.394" cy="668.326" r="5.07203" fill="#25356A" fill-opacity="0.35"/>
<circle cx="134.301" cy="668.326" r="5.07203" fill="#25356A" fill-opacity="0.35"/>
<circle cx="151.208" cy="668.326" r="5.07203" fill="#25356A" fill-opacity="0.35"/>
<circle cx="168.114" cy="668.326" r="5.07203" fill="#25356A" fill-opacity="0.35"/>
<circle cx="185.021" cy="668.326" r="5.07203" fill="#25356A" fill-opacity="0.35"/>
<circle cx="201.928" cy="668.326" r="5.07203" fill="#25356A" fill-opacity="0.35"/>
<circle cx="218.835" cy="668.326" r="5.07203" fill="#25356A" fill-opacity="0.35"/>
<circle cx="235.742" cy="668.326" r="5.07203" fill="#25356A" fill-opacity="0.35"/>
<circle cx="252.648" cy="668.326" r="5.07203" fill="#25356A" fill-opacity="0.35"/>
<circle cx="269.555" cy="668.326" r="5.07203" fill="#25356A" fill-opacity="0.35"/>
<circle cx="286.462" cy="668.326" r="5.07203" fill="#25356A" fill-opacity="0.35"/>
<circle cx="320.275" cy="668.326" r="5.07203" fill="#25356A" fill-opacity="0.35"/>
<circle cx="337.182" cy="668.326" r="5.07203" fill="#25356A" fill-opacity="0.35"/>
<circle cx="-0.953387" cy="685.233" r="5.07203" fill="#25356A" fill-opacity="0.35"/>
<circle cx="15.9534" cy="685.233" r="5.07203" fill="#25356A" fill-opacity="0.35"/>
<circle cx="32.8602" cy="685.233" r="5.07203" fill="#25356A" fill-opacity="0.35"/>
<circle cx="49.7669" cy="685.233" r="5.07203" fill="#25356A" fill-opacity="0.35"/>
<circle cx="66.6737" cy="685.233" r="5.07203" fill="#25356A" fill-opacity="0.35"/>
<circle cx="83.5805" cy="685.233" r="5.07203" fill="#25356A" fill-opacity="0.35"/>
<circle cx="100.487" cy="685.233" r="5.07203" fill="#25356A" fill-opacity="0.35"/>
<circle cx="117.394" cy="685.233" r="5.07203" fill="#25356A" fill-opacity="0.35"/>
<circle cx="134.301" cy="685.233" r="5.07203" fill="#25356A" fill-opacity="0.35"/>
<circle cx="151.208" cy="685.233" r="5.07203" fill="#25356A" fill-opacity="0.35"/>
<circle cx="168.114" cy="685.233" r="5.07203" fill="#25356A" fill-opacity="0.35"/>
<circle cx="185.021" cy="685.233" r="5.07203" fill="#25356A" fill-opacity="0.35"/>
<circle cx="201.928" cy="685.233" r="5.07203" fill="#25356A" fill-opacity="0.35"/>
<circle cx="218.835" cy="685.233" r="5.07203" fill="#25356A" fill-opacity="0.35"/>
<circle cx="235.742" cy="685.233" r="5.07203" fill="#25356A" fill-opacity="0.35"/>
<circle cx="252.648" cy="685.233" r="5.07203" fill="#25356A" fill-opacity="0.35"/>
<circle cx="269.555" cy="685.233" r="5.07203" fill="#25356A" fill-opacity="0.35"/>
<circle cx="286.462" cy="685.233" r="5.07203" fill="#25356A" fill-opacity="0.35"/>
<circle cx="303.369" cy="685.233" r="5.07203" fill="#25356A" fill-opacity="0.35"/>
<circle cx="337.182" cy="685.233" r="5.07203" fill="#25356A" fill-opacity="0.35"/>
<circle cx="-0.953387" cy="702.14" r="5.07203" fill="#25356A" fill-opacity="0.35"/>
<circle cx="15.9534" cy="702.14" r="5.07203" fill="#25356A" fill-opacity="0.35"/>
<circle cx="32.8602" cy="702.14" r="5.07203" fill="#25356A" fill-opacity="0.35"/>
<circle cx="49.7669" cy="702.14" r="5.07203" fill="#25356A" fill-opacity="0.35"/>
<circle cx="66.6737" cy="702.14" r="5.07203" fill="#25356A" fill-opacity="0.35"/>
<circle cx="83.5805" cy="702.14" r="5.07203" fill="#25356A" fill-opacity="0.35"/>
<circle cx="100.487" cy="702.14" r="5.07203" fill="#25356A" fill-opacity="0.35"/>
<circle cx="117.394" cy="702.14" r="5.07203" fill="#25356A" fill-opacity="0.35"/>
<circle cx="134.301" cy="702.14" r="5.07203" fill="#25356A" fill-opacity="0.35"/>
<circle cx="151.208" cy="702.14" r="5.07203" fill="#25356A" fill-opacity="0.35"/>
<circle cx="168.114" cy="702.14" r="5.07203" fill="#25356A" fill-opacity="0.35"/>
<circle cx="185.021" cy="702.14" r="5.07203" fill="#25356A" fill-opacity="0.35"/>
<circle cx="201.928" cy="702.14" r="5.07203" fill="#25356A" fill-opacity="0.35"/>
<circle cx="218.835" cy="702.14" r="5.07203" fill="#25356A" fill-opacity="0.35"/>
<circle cx="235.742" cy="702.14" r="5.07203" fill="#25356A" fill-opacity="0.35"/>
<circle cx="252.648" cy="702.14" r="5.07203" fill="#25356A" fill-opacity="0.35"/>
<circle cx="269.555" cy="702.14" r="5.07203" fill="#25356A" fill-opacity="0.35"/>
<circle cx="286.462" cy="702.14" r="5.07203" fill="#25356A" fill-opacity="0.35"/>
<circle cx="303.369" cy="702.14" r="5.07203" fill="#25356A" fill-opacity="0.35"/>
<circle cx="320.275" cy="702.14" r="5.07203" fill="#25356A" fill-opacity="0.35"/>
<circle cx="337.182" cy="702.14" r="5.07203" fill="#25356A" fill-opacity="0.35"/>
<circle cx="-0.953387" cy="719.047" r="5.07203" fill="#25356A" fill-opacity="0.35"/>
<circle cx="15.9534" cy="719.047" r="5.07203" fill="#25356A" fill-opacity="0.35"/>
<circle cx="32.8602" cy="719.047" r="5.07203" fill="#25356A" fill-opacity="0.35"/>
<circle cx="49.7669" cy="719.047" r="5.07203" fill="#25356A" fill-opacity="0.35"/>
<circle cx="66.6737" cy="719.047" r="5.07203" fill="#25356A" fill-opacity="0.35"/>
<circle cx="83.5805" cy="719.047" r="5.07203" fill="#25356A" fill-opacity="0.35"/>
<circle cx="100.487" cy="719.047" r="5.07203" fill="#25356A" fill-opacity="0.35"/>
<circle cx="117.394" cy="719.047" r="5.07203" fill="#25356A" fill-opacity="0.35"/>
<circle cx="134.301" cy="719.047" r="5.07203" fill="#25356A" fill-opacity="0.35"/>
<circle cx="151.208" cy="719.047" r="5.07203" fill="#25356A" fill-opacity="0.35"/>
<circle cx="168.114" cy="719.047" r="5.07203" fill="#25356A" fill-opacity="0.35"/>
<circle cx="185.021" cy="719.047" r="5.07203" fill="#25356A" fill-opacity="0.35"/>
<circle cx="201.928" cy="719.047" r="5.07203" fill="#25356A" fill-opacity="0.35"/>
<circle cx="218.835" cy="719.047" r="5.07203" fill="#25356A" fill-opacity="0.35"/>
<circle cx="235.742" cy="719.047" r="5.07203" fill="#25356A" fill-opacity="0.35"/>
<circle cx="252.648" cy="719.047" r="5.07203" fill="#25356A" fill-opacity="0.35"/>
<circle cx="269.555" cy="719.047" r="5.07203" fill="#25356A" fill-opacity="0.35"/>
<circle cx="286.462" cy="719.047" r="5.07203" fill="#25356A" fill-opacity="0.35"/>
<circle cx="303.369" cy="719.047" r="5.07203" fill="#25356A" fill-opacity="0.35"/>
<circle cx="320.275" cy="719.047" r="5.07203" fill="#25356A" fill-opacity="0.35"/>
<circle cx="-0.953387" cy="735.953" r="5.07203" fill="#25356A" fill-opacity="0.35"/>
<circle cx="15.9534" cy="735.953" r="5.07203" fill="#25356A" fill-opacity="0.35"/>
<circle cx="32.8602" cy="735.953" r="5.07203" fill="#25356A" fill-opacity="0.35"/>
<circle cx="49.7669" cy="735.953" r="5.07203" fill="#25356A" fill-opacity="0.35"/>
<circle cx="66.6737" cy="735.953" r="5.07203" fill="#25356A" fill-opacity="0.35"/>
<circle cx="83.5805" cy="735.953" r="5.07203" fill="#25356A" fill-opacity="0.35"/>
<circle cx="100.487" cy="735.953" r="5.07203" fill="#25356A" fill-opacity="0.35"/>
<circle cx="117.394" cy="735.953" r="5.07203" fill="#25356A" fill-opacity="0.35"/>
<circle cx="134.301" cy="735.953" r="5.07203" fill="#25356A" fill-opacity="0.35"/>
<circle cx="151.208" cy="735.953" r="5.07203" fill="#25356A" fill-opacity="0.35"/>
<circle cx="168.114" cy="735.953" r="5.07203" fill="#25356A" fill-opacity="0.35"/>
<circle cx="185.021" cy="735.953" r="5.07203" fill="#25356A" fill-opacity="0.35"/>
<circle cx="201.928" cy="735.953" r="5.07203" fill="#25356A" fill-opacity="0.35"/>
<circle cx="218.835" cy="735.953" r="5.07203" fill="#25356A" fill-opacity="0.35"/>
<circle cx="235.742" cy="735.953" r="5.07203" fill="#25356A" fill-opacity="0.35"/>
<circle cx="252.648" cy="735.953" r="5.07203" fill="#25356A" fill-opacity="0.35"/>
<circle cx="269.555" cy="735.953" r="5.07203" fill="#25356A" fill-opacity="0.35"/>
<circle cx="286.462" cy="735.953" r="5.07203" fill="#25356A" fill-opacity="0.35"/>
<circle cx="303.369" cy="735.953" r="5.07203" fill="#25356A" fill-opacity="0.35"/>
<circle cx="320.275" cy="735.953" r="5.07203" fill="#25356A" fill-opacity="0.35"/>
<circle cx="-0.953387" cy="752.86" r="5.07203" fill="#25356A" fill-opacity="0.35"/>
<circle cx="15.9534" cy="752.86" r="5.07203" fill="#25356A" fill-opacity="0.35"/>
<circle cx="32.8602" cy="752.86" r="5.07203" fill="#25356A" fill-opacity="0.35"/>
<circle cx="49.7669" cy="752.86" r="5.07203" fill="#25356A" fill-opacity="0.35"/>
<circle cx="66.6737" cy="752.86" r="5.07203" fill="#25356A" fill-opacity="0.35"/>
<circle cx="83.5805" cy="752.86" r="5.07203" fill="#25356A" fill-opacity="0.35"/>
<circle cx="100.487" cy="752.86" r="5.07203" fill="#25356A" fill-opacity="0.35"/>
<circle cx="117.394" cy="752.86" r="5.07203" fill="#25356A" fill-opacity="0.35"/>
<circle cx="134.301" cy="752.86" r="5.07203" fill="#25356A" fill-opacity="0.35"/>
<circle cx="151.208" cy="752.86" r="5.07203" fill="#25356A" fill-opacity="0.35"/>
<circle cx="168.114" cy="752.86" r="5.07203" fill="#25356A" fill-opacity="0.35"/>
<circle cx="185.021" cy="752.86" r="5.07203" fill="#25356A" fill-opacity="0.35"/>
<circle cx="201.928" cy="752.86" r="5.07203" fill="#25356A" fill-opacity="0.35"/>
<circle cx="218.835" cy="752.86" r="5.07203" fill="#25356A" fill-opacity="0.35"/>
<circle cx="235.742" cy="752.86" r="5.07203" fill="#25356A" fill-opacity="0.35"/>
<circle cx="252.648" cy="752.86" r="5.07203" fill="#25356A" fill-opacity="0.35"/>
<circle cx="269.555" cy="752.86" r="5.07203" fill="#25356A" fill-opacity="0.35"/>
<circle cx="286.462" cy="752.86" r="5.07203" fill="#25356A" fill-opacity="0.35"/>
<circle cx="303.369" cy="752.86" r="5.07203" fill="#25356A" fill-opacity="0.35"/>
<circle cx="320.275" cy="752.86" r="5.07203" fill="#25356A" fill-opacity="0.35"/>
<circle cx="337.182" cy="752.86" r="5.07203" fill="#25356A" fill-opacity="0.35"/>
<circle cx="-0.953387" cy="769.767" r="5.07203" fill="#25356A" fill-opacity="0.35"/>
<circle cx="15.9534" cy="769.767" r="5.07203" fill="#25356A" fill-opacity="0.35"/>
<circle cx="32.8602" cy="769.767" r="5.07203" fill="#25356A" fill-opacity="0.35"/>
<circle cx="49.7669" cy="769.767" r="5.07203" fill="#25356A" fill-opacity="0.35"/>
<circle cx="66.6737" cy="769.767" r="5.07203" fill="#25356A" fill-opacity="0.35"/>
<circle cx="83.5805" cy="769.767" r="5.07203" fill="#25356A" fill-opacity="0.35"/>
<circle cx="100.487" cy="769.767" r="5.07203" fill="#25356A" fill-opacity="0.35"/>
<circle cx="117.394" cy="769.767" r="5.07203" fill="#25356A" fill-opacity="0.35"/>
<circle cx="134.301" cy="769.767" r="5.07203" fill="#25356A" fill-opacity="0.35"/>
<circle cx="151.208" cy="769.767" r="5.07203" fill="#25356A" fill-opacity="0.35"/>
<circle cx="168.114" cy="769.767" r="5.07203" fill="#25356A" fill-opacity="0.35"/>
<circle cx="185.021" cy="769.767" r="5.07203" fill="#25356A" fill-opacity="0.35"/>
<circle cx="201.928" cy="769.767" r="5.07203" fill="#25356A" fill-opacity="0.35"/>
<circle cx="218.835" cy="769.767" r="5.07203" fill="#25356A" fill-opacity="0.35"/>
<circle cx="235.742" cy="769.767" r="5.07203" fill="#25356A" fill-opacity="0.35"/>
<circle cx="252.648" cy="769.767" r="5.07203" fill="#25356A" fill-opacity="0.35"/>
<circle cx="269.555" cy="769.767" r="5.07203" fill="#25356A" fill-opacity="0.35"/>
<circle cx="286.462" cy="769.767" r="5.07203" fill="#25356A" fill-opacity="0.35"/>
<circle cx="303.369" cy="769.767" r="5.07203" fill="#25356A" fill-opacity="0.35"/>
<circle cx="320.275" cy="769.767" r="5.07203" fill="#25356A" fill-opacity="0.35"/>
<circle cx="-0.953387" cy="786.674" r="5.07203" fill="#25356A" fill-opacity="0.35"/>
<circle cx="15.9534" cy="786.674" r="5.07203" fill="#25356A" fill-opacity="0.35"/>
<circle cx="32.8602" cy="786.674" r="5.07203" fill="#25356A" fill-opacity="0.35"/>
<circle cx="49.7669" cy="786.674" r="5.07203" fill="#25356A" fill-opacity="0.35"/>
<circle cx="66.6737" cy="786.674" r="5.07203" fill="#25356A" fill-opacity="0.35"/>
<circle cx="83.5805" cy="786.674" r="5.07203" fill="#25356A" fill-opacity="0.35"/>
<circle cx="100.487" cy="786.674" r="5.07203" fill="#25356A" fill-opacity="0.35"/>
<circle cx="117.394" cy="786.674" r="5.07203" fill="#25356A" fill-opacity="0.35"/>
<circle cx="134.301" cy="786.674" r="5.07203" fill="#25356A" fill-opacity="0.35"/>
<circle cx="151.208" cy="786.674" r="5.07203" fill="#25356A" fill-opacity="0.35"/>
<circle cx="168.114" cy="786.674" r="5.07203" fill="#25356A" fill-opacity="0.35"/>
<circle cx="185.021" cy="786.674" r="5.07203" fill="#25356A" fill-opacity="0.35"/>
<circle cx="201.928" cy="786.674" r="5.07203" fill="#25356A" fill-opacity="0.35"/>
<circle cx="218.835" cy="786.674" r="5.07203" fill="#25356A" fill-opacity="0.35"/>
<circle cx="235.742" cy="786.674" r="5.07203" fill="#25356A" fill-opacity="0.35"/>
<circle cx="252.648" cy="786.674" r="5.07203" fill="#25356A" fill-opacity="0.35"/>
<circle cx="269.555" cy="786.674" r="5.07203" fill="#25356A" fill-opacity="0.35"/>
<circle cx="286.462" cy="786.674" r="5.07203" fill="#25356A" fill-opacity="0.35"/>
<circle cx="303.369" cy="786.674" r="5.07203" fill="#25356A" fill-opacity="0.35"/>
<circle cx="320.275" cy="786.674" r="5.07203" fill="#25356A" fill-opacity="0.35"/>
</g>
</svg>
